<?xml version="1.0" encoding="UTF-8"?>
<svg width="512px" height="512px" enable-background="new 0 0 612 612" version="1.1" viewBox="0 0 612 612" xml:space="preserve" xmlns="http://www.w3.org/2000/svg">
	<g fill="#3768d1">
		<path d="m269.27 310.2c86.177-5e-3 117.18-86.291 125.3-157.17 9.999-87.314-31.291-153.03-125.3-153.03-93.998 0-135.31 65.71-125.3 153.03 8.125 70.878 39.123 157.18 125.3 157.17z"/>
		<path d="m457.71 346.12c2.773 0 5.528 0.083 8.264 0.235-4.101-5.85-8.848-11.01-14.403-15.158-16.559-12.359-38.005-16.414-56.964-23.864-9.229-3.625-17.493-7.226-25.251-11.326-26.184 28.715-60.329 43.736-100.09 43.74-39.749 0-73.891-15.021-100.07-43.74-7.758 4.101-16.024 7.701-25.251 11.326-18.959 7.451-40.404 11.505-56.964 23.864-28.638 21.375-36.039 69.46-41.854 102.26-4.799 27.076-8.023 54.707-8.964 82.209-0.729 21.303 9.789 24.29 27.611 30.721 22.315 8.048 45.356 14.023 68.552 18.921 44.797 9.46 90.973 16.729 136.95 17.054 22.278-0.159 44.601-1.956 66.792-4.833-16.431-23.807-26.068-52.645-26.068-83.695 1e-3 -81.451 66.264-147.71 147.71-147.71z"/>
		<path d="m457.71 375.66c-65.262 0-118.17 52.909-118.17 118.17s52.908 118.17 118.17 118.17 118.17-52.909 118.17-118.17c-1e-3 -65.263-52.91-118.17-118.17-118.17zm51.7 138.44h-31.425v31.424c0 11.198-9.077 20.276-20.274 20.276-11.198 0-20.276-9.078-20.276-20.276v-31.424h-31.424c-11.198 0-20.276-9.077-20.276-20.276 0-11.198 9.077-20.276 20.276-20.276h31.424v-31.424c0-11.198 9.078-20.276 20.276-20.276s20.274 9.078 20.274 20.276v31.424h31.425c11.198 0 20.276 9.078 20.276 20.276-1e-3 11.2-9.077 20.276-20.276 20.276z"/>
	</g>
</svg>
