<?xml version="1.0" encoding="UTF-8"?><svg width="512px" height="512px" enable-background="new 0 0 419.142 419.142" version="1.1" viewBox="0 0 419.142 419.142" xml:space="preserve" xmlns="http://www.w3.org/2000/svg"><g fill="currentColor"><path d="m89.492 381.06c34.067 23.914 75.417 38.082 120.08 38.082 115.58 0 209.54-93.991 209.54-209.54 0-22.467-3.617-44.024-10.193-64.354-17.761-54.941-57.697-99.892-109.18-124.54-27.369-13.127-57.835-20.719-90.17-20.711-115.52-8e-3 -209.54 94.072-209.54 209.6 0 46.43 15.371 89.227 40.984 123.98 13.519 18.314 29.824 34.352 48.48 47.471zm262.9-288.65c12.9 15.639 23.288 33.4 30.507 52.706 1.569 4.202-0.788 8.795-5.056 10.177l-73.336 23.703c-4.268 1.382-8.803-0.984-10.551-5.121-2.349-5.568-5.243-10.86-8.608-15.786-2.536-3.723-2.292-9.055 0.919-12.201l55.022-53.949c3.202-3.138 8.25-2.992 11.103 0.471zm-99.884 27.206l33.132-69.491c1.935-4.056 6.795-5.771 10.762-3.674 3.861 2.04 7.641 4.202 11.347 6.503 3.812 2.374 4.861 7.551 2.479 11.356l-41.057 65.427c-2.382 3.804-7.21 4.658-11.006 2.268-0.65-0.415-1.309-0.821-1.975-1.211-3.869-2.302-5.616-7.122-3.682-11.178zm-42.943 35.294c30.124 0 54.665 24.565 54.673 54.689-8e-3 30.149-24.548 54.64-54.673 54.632-30.124 0-54.632-24.483-54.632-54.632 8e-3 -30.124 24.516-54.689 54.632-54.689zm-142.24 159.33l61.997-45.577c3.617-2.658 8.673-1.853 11.64 1.52 2.975 3.39 6.194 6.552 9.64 9.47 3.43 2.894 4.341 7.95 1.772 11.624l-44.154 63.045c-2.569 3.682-7.649 4.576-11.201 1.829-11.599-8.95-22.077-19.248-31.279-30.653-2.813-3.503-2.032-8.591 1.585-11.258z"/><circle cx="209.57" cy="209.57" r="33.482"/></g></svg>
