<?xml version="1.0" encoding="UTF-8"?>
<svg viewBox="0 0 180 156" xmlns="http://www.w3.org/2000/svg">
<g fill-rule="evenodd">
<polygon points="20 31.849 48.285 141 129 119.72 99.335 14" fill="#E9E9E9"/>
<path d="m128.05 18.117c-2.7657-2.7446-5.5313-4.1125-9.6798-4.1169-4.1485-0.0043985-5.6994 0.0043985-9.6798 2.0584-3.9804 2.054-5.8843 4.2393-7.6056 6.1753-1.7213 1.936-2.135 2.8294-2.7657 5.4892-0.42043 1.7732-0.42043 3.8316 0 6.1753 0.48501 1.3723 1.4069 2.0584 2.7657 2.0584 2.0382 0 2.0743 0 4.1485-2.0584s1.9322-4.1324 3.4571-6.1753c1.0166-1.3619 2.1689-2.3911 3.4571-3.0877 1.3828-0.68615 2.7657-1.0292 4.1485-1.0292 1.3828 0 2.7657 0.34307 4.1485 1.0292 0.78045 0.46521 1.4719 1.2657 2.0743 2.4015 0.90357 1.7037 1.3828 3.4307 1.3828 4.803 0 0.91486-0.46094 2.2872-1.3828 4.1169-0.92189 1.3723-1.8438 2.2872-2.7657 2.7446-1.3828 0.68615-1.7461 0.98851-4.8399 1.3723s-4.4665-0.24898-6.2228 0-2.6384 0.79195-3.4571 1.3723c-0.81872 0.58034-1.1114 1.2503-1.3828 2.0584s0 2.0584 0 2.7446 0.69142 1.3723 1.3828 2.0584c0.69142 0.68615 1.0588 0.96348 4.1485 1.3723 3.0897 0.40882 3.7984 0.15037 6.2228 0 1.6163-0.10025 3.2296-0.32896 4.8399-0.68615l2.0743 4.803 2.0743 5.4892 3.4571 10.292 5.5313 16.468 6.9142 19.212 3.4571 9.606 5.5313 15.095c5.7087 0.18762 9.3963-0.26981 11.063-1.3723 1.6664-1.1025 2.8188-3.8471 3.4571-8.2338l-6.2228-13.723-6.9142-18.526-6.9142-21.957-8.297-26.074-3.4571-15.438c-0.92189-2.5159-2.3047-4.6887-4.1485-6.5184z" fill="#D8BC8E"/>
<path d="m97.83 37.783l8.9105-5.6019 9.5959-6.3021 17.821-12.604c1.7685-0.52741 3.1393-0.294 4.1125 0.70024 0.9732 0.99424 0.9732 2.3947 0 4.2014l-24.675 17.506-8.225 4.9017-6.8542 4.2014-5.4129 2.894c-5.322 1.3211-8.3156 1.6514-8.9809 0.99083-0.66525-0.66055 1.391-2.8891 6.1688-6.6858l7.5396-4.2014zm-60.83 9.9836l8.8667-4.7661 4.4333 6.1278c0.46667 0.60522 0.7 1.0591 0.7 1.3617s-0.23333 0.75652-0.7 1.3617c-0.56049 0.71215-1.0531 1.1661-1.4778 1.3617-0.63704 0.29351-1.4692 0.33973-2.0222 0s-0.7-0.68087-0.7-1.3617 0.15556-0.68087 0.7-1.3617c0.36296-0.45391 1.037-0.90783 2.0222-1.3617l-2.9556-3.4044-5.9111 3.4044 2.2167 3.4044c0.45558 0.49831 0.8315 0.95222 1.1278 1.3617 0.44441 0.61428 0.7 0.68087 0.7 1.3617s-0.40152 1.22-1.4 2.0426c-0.66565 0.54844-1.3008 0.7754-1.9056 0.68087-0.5963 0-1.1202-0.21236-1.5716-0.63709-0.011613-0.010926-0.01524-0.029006-0.022835-0.04378-0.7-1.3617 0.27646-2.1899 0.85556-2.7235 0.38606-0.35575 0.87866-0.58271 1.4778-0.68087l-4.4333-6.1278zm46 24l8.8667-4.7661 4.4333 6.1278c0.46667 0.60522 0.7 1.0591 0.7 1.3617s-0.23333 0.75652-0.7 1.3617c-0.56049 0.71215-1.0531 1.1661-1.4778 1.3617-0.63704 0.29351-1.4692 0.33973-2.0222 0s-0.7-0.68087-0.7-1.3617 0.15556-0.68087 0.7-1.3617c0.36296-0.45391 1.037-0.90783 2.0222-1.3617l-2.9556-3.4044-5.9111 3.4044 2.2167 3.4044c0.45558 0.49831 0.8315 0.95222 1.1278 1.3617 0.44441 0.61428 0.7 0.68087 0.7 1.3617s-0.40152 1.22-1.4 2.0426c-0.66565 0.54844-1.3008 0.7754-1.9056 0.68087-0.5963 0-1.1202-0.21236-1.5716-0.63709-0.011613-0.010926-0.01524-0.029006-0.022835-0.04378-0.7-1.3617 0.27646-2.1899 0.85556-2.7235 0.38606-0.35575 0.87866-0.58271 1.4778-0.68087l-4.4333-6.1278zm-35 18l8.8667-4.7661 4.4333 6.1278c0.46667 0.60522 0.7 1.0591 0.7 1.3617s-0.23333 0.75652-0.7 1.3617c-0.56049 0.71215-1.0531 1.1661-1.4778 1.3617-0.63704 0.29351-1.4692 0.33973-2.0222 0s-0.7-0.68087-0.7-1.3617 0.15556-0.68087 0.7-1.3617c0.36296-0.45391 1.037-0.90783 2.0222-1.3617l-2.9556-3.4044-5.9111 3.4044 2.2167 3.4044c0.45558 0.49831 0.8315 0.95222 1.1278 1.3617 0.44441 0.61428 0.7 0.68087 0.7 1.3617s-0.40152 1.22-1.4 2.0426c-0.66565 0.54844-1.3008 0.7754-1.9056 0.68087-0.5963 0-1.1202-0.21236-1.5716-0.63709-0.011613-0.010926-0.01524-0.029006-0.022835-0.04378-0.7-1.3617 0.27646-2.1899 0.85556-2.7235 0.38606-0.35575 0.87866-0.58271 1.4778-0.68087l-4.4333-6.1278z" fill="#4A4A4A"/>
<path d="m74 49.766l8.8667-4.7661 4.4333 6.1278c0.46667 0.60522 0.7 1.0591 0.7 1.3617s-0.23333 0.75652-0.7 1.3617c-0.56049 0.71215-1.0531 1.1661-1.4778 1.3617-0.63704 0.29351-1.4692 0.33973-2.0222 0s-0.7-0.68087-0.7-1.3617 0.15556-0.68087 0.7-1.3617c0.36296-0.45391 1.037-0.90783 2.0222-1.3617l-2.9556-3.4044-5.9111 3.4044 2.2167 3.4044c0.45558 0.49831 0.8315 0.95222 1.1278 1.3617 0.44441 0.61428 0.7 0.68087 0.7 1.3617s-0.40152 1.22-1.4 2.0426c-0.66565 0.54844-1.3008 0.7754-1.9056 0.68087-0.5963 0-1.1202-0.21236-1.5716-0.63709-0.011613-0.010926-0.01524-0.029006-0.022835-0.04378-0.7-1.3617 0.27646-2.1899 0.85556-2.7235 0.38606-0.35575 0.87866-0.58271 1.4778-0.68087l-4.4333-6.1278zm-16.846 16.234l1.3846 1.9691-3.2308 2.9536c1.9623 2.0674 3.0392 3.2161 3.2308 3.4459 0.19153 0.22981 0.34537 0.55799 0.46154 0.98454 0 0.65636-0.15385 1.1486-0.46154 1.4768-0.46154 0.49227-0.72777 0.70431-1.3846 0.98454-0.65684 0.28023-0.88704 0.21228-1.3846 0-0.49758-0.21228-0.77417-0.6669-0.92308-0.98454s-0.31264-0.31763 0-0.98454c0.20842-0.4446 0.51612-0.77278 0.92308-0.98454 0.46504-0.27473 0.77273-0.43882 0.92308-0.49227 0.15034-0.053451 0.30419-0.053451 0.46154 0l-4.1538-4.4304 4.1538-3.9381zm10-33l1.3846 1.9691-3.2308 2.9536c1.9623 2.0674 3.0392 3.2161 3.2308 3.4459 0.19153 0.22981 0.34537 0.55799 0.46154 0.98454 0 0.65636-0.15385 1.1486-0.46154 1.4768-0.46154 0.49227-0.72777 0.70431-1.3846 0.98454-0.65684 0.28023-0.88704 0.21228-1.3846 0-0.49758-0.21228-0.77417-0.6669-0.92308-0.98454s-0.31264-0.31763 0-0.98454c0.20842-0.4446 0.51612-0.77278 0.92308-0.98454 0.46504-0.27473 0.77273-0.43882 0.92308-0.49227 0.15034-0.053451 0.30419-0.053451 0.46154 0l-4.1538-4.4304 4.1538-3.9381zm9.8462 76.766l8.8667-4.7661 4.4333 6.1278c0.46667 0.60522 0.7 1.0591 0.7 1.3617 0 0.30261-0.23333 0.75652-0.7 1.3617-0.56049 0.71215-1.0531 1.1661-1.4778 1.3617-0.63704 0.29351-1.4692 0.33973-2.0222 0-0.55302-0.33973-0.7-0.68087-0.7-1.3617s0.15556-0.68087 0.7-1.3617c0.36296-0.45391 1.037-0.90783 2.0222-1.3617l-2.9556-3.4044-5.9111 3.4044 2.2167 3.4044c0.45558 0.49831 0.8315 0.95222 1.1278 1.3617 0.44441 0.61428 0.7 0.68087 0.7 1.3617 0 0.68087-0.40152 1.22-1.4 2.0426-0.66565 0.54844-1.3008 0.7754-1.9056 0.68087-0.5963 0-1.1202-0.21236-1.5716-0.63709-0.011613-0.010926-0.01524-0.029006-0.022835-0.04378-0.7-1.3617 0.27646-2.1899 0.85556-2.7235 0.38606-0.35575 0.87866-0.58271 1.4778-0.68087l-4.4333-6.1278zm29.154-14.766l1.3846 1.9691-3.2308 2.9536c1.9623 2.0674 3.0392 3.2161 3.2308 3.4459 0.19153 0.22982 0.34537 0.55799 0.46154 0.98454 0 0.65636-0.15385 1.1486-0.46154 1.4768-0.46154 0.49227-0.72778 0.70431-1.3846 0.98454-0.65684 0.28023-0.88704 0.21228-1.3846 0-0.49758-0.21228-0.77417-0.6669-0.92308-0.98454s-0.31264-0.31763 0-0.98454c0.20842-0.4446 0.51612-0.77278 0.92308-0.98454 0.46504-0.27473 0.77273-0.43882 0.92308-0.49227s0.30419-0.053451 0.46154 0l-4.1538-4.4304 4.1538-3.9381zm-43 12l1.3846 1.9691-3.2308 2.9536c1.9623 2.0674 3.0392 3.2161 3.2308 3.4459 0.19153 0.22982 0.34537 0.55799 0.46154 0.98454 0 0.65636-0.15385 1.1486-0.46154 1.4768-0.46154 0.49227-0.72777 0.70431-1.3846 0.98454-0.65684 0.28023-0.88704 0.21228-1.3846 0-0.49758-0.21228-0.77417-0.6669-0.92308-0.98454s-0.31264-0.31763 0-0.98454c0.20842-0.4446 0.51612-0.77278 0.92308-0.98454 0.46504-0.27473 0.77273-0.43882 0.92308-0.49227s0.30419-0.053451 0.46154 0l-4.1538-4.4304 4.1538-3.9381z" fill="#4A4A4A"/>
</g>
</svg>
