<svg xmlns="http://www.w3.org/2000/svg" width="140" height="185" viewBox="0 0 140 185">
  <g fill="none" fill-rule="evenodd">
    <rect width="20" height="42" x="59" y="10" fill="#4A4A4A"/>
    <path fill="#D8BC8E" d="M60.2979771,53 L53.7575725,56.2027723 C50.5352632,57.8936334 47.8100947,59.7619173 45.5820667,61.8076239 C43.3540388,63.8533305 41.7189377,65.9885121 40.6767633,68.2131685 C39.5866959,70.3533231 39.0416622,73.0223 39.0416622,76.2200993 C39.0416622,81.0167983 38.5877036,82.1084449 40.6767633,85.8284163 C42.765823,89.5483878 45.1443391,90.975836 48.0347185,92.233961 C50.9250979,93.4920859 52.50566,92.9879569 55.3926736,92.233961 C57.3173494,91.731297 58.9524506,90.6637062 60.2979771,89.0311886 C61.0870062,87.5570336 61.3595231,86.2225451 61.1155276,85.0277232 C60.8715322,83.8329013 60.0539816,82.4984129 58.6628759,81.0242578 L55.3926736,78.6221786 C53.7575725,77.5356713 52.9400219,76.2011828 52.9400219,74.6187132 C52.9400219,72.2450087 52.3953337,71.9110763 53.7575725,69.8145547 C55.1198113,67.7180331 55.7650023,67.3393082 58.6628759,65.8110893 C60.5947917,64.7922767 63.0474434,64.2584813 66.0208311,64.2097031 C69.3822444,64.3789935 72.107413,65.1796865 74.1963368,66.6117824 C76.2852606,68.0438782 77.6478449,70.0456109 78.2840897,72.6169805 C78.5165783,74.1652041 78.5165783,75.3662437 78.2840897,76.2200993 C78.051601,77.073955 77.5065673,77.874648 76.6489885,78.6221786 C75.0884437,79.082955 73.7258594,79.8836481 72.5612357,81.0242578 C71.396612,82.1648676 70.5790614,83.499356 70.1085839,85.0277232 C69.8047809,86.4496989 70.0772977,87.7841873 70.9261345,89.0311886 C71.7749713,90.2781899 73.1375556,91.3457807 75.0138874,92.233961 C75.6189207,93.1040325 77.2540219,93.1040325 79.9191908,92.233961 C82.5843598,91.3638895 85.0370115,90.029401 87.277146,88.2304956 C89.0436355,86.7714162 90.4062198,85.17003 91.3648989,83.4263371 C92.3235779,81.6826441 92.8686116,79.8143603 93,77.8214855 L93,72.6169805 L91.3648989,66.6117824 C90.1788385,64.5216696 89.088771,62.9202835 88.0946966,61.8076239 C87.1006221,60.6949643 86.2830715,59.8942712 85.6420448,59.4055446 L83.1893931,57.0034654 L79.9191908,53.8006931 L61.1155276,53 L60.2979771,53 Z"/>
    <ellipse cx="65.5" cy="91" fill="#A54B30" rx="7.5" ry="7"/>
    <polygon fill="#F2F2F2" points="54.816 44.889 85 41 85 55 54 55"/>
    <circle cx="79" cy="49" r="2" fill="#4A4A4A"/>
    <text fill="#4A4A4A" font-family="Roboto-Regular, Roboto" font-size="11">
      <tspan x="60" y="95"> 5</tspan>
    </text>
    <path fill="#D8BC8E" d="M29.0499219 171.973503L25.1782816 141.35828 19.6473669 134.890275C17.5103371 132.602396 16.0354265 130.877595 15.2226351 129.715871 14.0034479 127.973286 12.8803577 126.923089 13.0102692 125.403868 13.1401807 123.884647 13.6362701 123.094659 15.7757266 122.816666 17.2020308 122.631337 18.4925776 123.062538 19.6473669 124.110267L22.9659157 127.99107 26.2844645 131.871873 23.5190072 116.779862C23.1502795 115.342527 23.3346434 114.336393 24.0720986 113.761459 25.1782816 112.899059 27.1432743 112.143164 28.4968304 112.467859 29.3992012 112.684322 30.1366565 113.834189 30.7091963 115.917461L32.3684707 123.247867 34.0277452 129.284671 34.0277452 131.009472C34.5331382 124.527363 34.9018659 120.359093 35.1339281 118.504663 35.3659903 116.650233 35.734718 114.925432 36.2401111 113.330259 36.9824595 112.531316 37.7199148 112.100116 38.4524769 112.036658 39.5513201 111.941472 40.6218488 111.96962 41.2179343 112.899059 41.6153246 113.518685 41.6153246 114.668552 41.2179343 116.348661L40.1117514 121.523065 39.5586599 125.403868 39.0055684 129.284671C40.5982997 127.437396 41.8888465 126.000062 42.8772087 124.972668 43.865571 123.945274 44.7873901 123.082873 45.6426661 122.385466 46.7537367 121.586523 47.6755558 121.155323 48.4081235 121.091865 49.5069749 120.996678 50.1638451 121.242249 50.6204894 121.954266 51.0771336 122.666282 51.1735808 122.816666 50.6204894 124.541467 50.2517617 125.691335 49.3299426 127.128669 47.855032 128.853471L44.5364831 133.165474C43.0078236 135.191537 41.7172769 136.772605 40.6648428 137.908677 39.0861918 139.612787 37.2740382 140.037035 37.346294 140.92708 37.3944645 141.520443 39.2381028 152.156717 42.8772087 172.835903 39.9537766 174.366873 37.7414107 175.08554 36.2401111 174.991905 34.7388114 174.89827 32.3420817 173.892136 29.0499219 171.973503zM110.049922 171.973503L106.178282 141.35828 100.647367 134.890275C98.5103371 132.602396 97.0354265 130.877595 96.2226351 129.715871 95.0034479 127.973286 93.8803577 126.923089 94.0102692 125.403868 94.1401807 123.884647 94.6362701 123.094659 96.7757266 122.816666 98.2020308 122.631337 99.4925776 123.062538 100.647367 124.110267L103.965916 127.99107 107.284465 131.871873 104.519007 116.779862C104.15028 115.342527 104.334643 114.336393 105.072099 113.761459 106.178282 112.899059 108.143274 112.143164 109.49683 112.467859 110.399201 112.684322 111.136656 113.834189 111.709196 115.917461L113.368471 123.247867 115.027745 129.284671 115.027745 131.009472C115.533138 124.527363 115.901866 120.359093 116.133928 118.504663 116.36599 116.650233 116.734718 114.925432 117.240111 113.330259 117.98246 112.531316 118.719915 112.100116 119.452477 112.036658 120.55132 111.941472 121.621849 111.96962 122.217934 112.899059 122.615325 113.518685 122.615325 114.668552 122.217934 116.348661L121.111751 121.523065 120.55866 125.403868 120.005568 129.284671C121.5983 127.437396 122.888846 126.000062 123.877209 124.972668 124.865571 123.945274 125.78739 123.082873 126.642666 122.385466 127.753737 121.586523 128.675556 121.155323 129.408123 121.091865 130.506975 120.996678 131.163845 121.242249 131.620489 121.954266 132.077134 122.666282 132.173581 122.816666 131.620489 124.541467 131.251762 125.691335 130.329943 127.128669 128.855032 128.853471L125.536483 133.165474C124.007824 135.191537 122.717277 136.772605 121.664843 137.908677 120.086192 139.612787 118.274038 140.037035 118.346294 140.92708 118.394465 141.520443 120.238103 152.156717 123.877209 172.835903 120.953777 174.366873 118.741411 175.08554 117.240111 174.991905 115.738811 174.89827 113.342082 173.892136 110.049922 171.973503zM69.2051892 171.973503L65.5373194 141.35828 60.2975055 134.890275C58.2729509 132.602396 56.8756672 130.877595 56.1056543 129.715871 54.9506349 127.973286 53.8866547 126.923089 54.0097287 125.403868 54.1328027 123.884647 54.6027822 123.094659 56.6296357 122.816666 57.9808713 122.631337 59.2034946 123.062538 60.2975055 124.110267L66.5852822 131.871873 63.9653752 116.779862C63.6160543 115.342527 63.7907148 114.336393 64.4893566 113.761459 65.5373194 112.899059 67.3988915 112.143164 68.6812078 112.467859 69.5360853 112.684322 70.2347272 113.834189 70.7771334 115.917461L72.3490775 123.247867 73.9210217 129.284671 73.9210217 131.009472C74.3998152 124.527363 74.7491361 120.359093 74.9689845 118.504663 75.1888329 116.650233 75.5381539 114.925432 76.0169473 113.330259 76.7202248 112.531316 77.4188667 112.100116 78.1128729 112.036658 79.1538822 111.941472 80.1680673 111.96962 80.7327799 112.899059 81.1092549 113.518685 81.1092549 114.668552 80.7327799 116.348661L79.6848171 121.523065 78.6368543 129.284671C80.1457576 127.437396 81.3683809 126.000062 82.3047241 124.972668 83.2410672 123.945274 84.1143696 123.082873 84.924631 122.385466 85.9772242 121.586523 86.8505266 121.155323 87.544538 121.091865 88.5855552 120.996678 89.2078533 121.242249 89.6404636 121.954266 90.0730739 122.666282 90.164445 122.816666 89.6404636 124.541467 89.2911427 125.691335 88.4178403 127.128669 87.0205566 128.853471L83.8766682 133.165474C82.4284645 135.191537 81.2058412 136.772605 80.2087985 137.908677 78.7132344 139.612787 76.9964573 140.037035 77.0649101 140.92708 77.1105453 141.520443 78.85715 152.156717 82.3047241 172.835903 79.5351567 174.366873 77.4392312 175.08554 76.0169473 174.991905 74.5946635 174.89827 72.3240774 173.892136 69.2051892 171.973503z"/>
  </g>
</svg>
