<svg xmlns="http://www.w3.org/2000/svg" width="221" height="194" viewBox="0 0 221 194">
  <g fill="none" fill-rule="evenodd">
    <rect width="18" height="24" x="145" y="122" fill="#D9BD8B"/>
    <rect width="13" height="41" x="89" y="127" fill="#000000"/>
    <path fill="#4A4A4A" d="M201,65.213063 C197.56732,56.6025429 194.458133,50.32695 191.672438,46.3862843 C189.714705,43.6168608 187.757259,39.7616894 184,36.5794264 C182.410983,35.2335865 182.410983,34.0544694 177,32.0442375 C171.589017,30.0340057 168.177066,30.2059581 161.588533,30.0415212 C155,29.8770843 148.824677,29.8770843 138.822335,36.5794264 C132.154107,41.0476545 127.546662,45.9510834 125,51.2897132 C133.997065,43.3226502 142.940928,38.4192213 151.831591,36.5794264 C165.167584,33.8197342 174.79441,35.8110964 179,39.080049 C183.20559,42.3490016 183.68185,42.2356982 189.233202,50.4724751 C192.934103,55.9636596 195.373339,61.1395013 196.550909,66 L201,65.213063 Z"/>
    <path fill="#D9BD8B" d="M159.542492,123.96215 C180.781987,123.96215 198,104.047295 198,79.4810752 C198,54.9148557 180.781987,35 159.542492,35 C147.201149,35 132.170072,40.7217651 125.133142,51.1749364 C120.059489,58.7117113 121.084983,69.1892119 121.084983,79.4810752 C121.084983,89.4269689 120.364403,106.849033 125.133142,114.257189 C132.143122,125.147074 146.902031,123.96215 159.542492,123.96215 Z"/>
    <path fill="#4A4A4A" d="M152,113 C158.627417,113 164,112.122847 164,106.6 C164,101.077153 158.627417,93 152,93 C145.372583,93 140,97.4771525 140,103 C140,108.522847 145.372583,113 152,113 Z"/>
    <circle cx="94.5" cy="95.5" r="33.5" fill="#000000"/>
    <path stroke="#4A4A4A" d="M126,78 C128.0604,80.5015904 129.7404,81.9738359 131.04,82.4167365 C132.9894,83.0810875 136.08,83.3000838 138.96,82.4167365 C140.88,81.8278383 142.56,80.3555928 144,78"/>
    <circle cx="94" cy="95" r="27" fill="#4A4A4A"/>
    <path fill="#E15D68" d="M157.935765,112.821586 C162.175598,111.968888 163.023564,110.263491 163.871531,109.410793 C164.719497,108.558095 161.213998,106 157.935765,106 C154.657533,106 152,107.527064 152,109.410793 C152,111.294522 153.695933,113.674284 157.935765,112.821586 Z"/>
    <path fill="#4A4A4A" d="M43.5,84 L43.5,84 C52.6126984,84 60,91.3873016 60,100.5 L60,136 L27,136 L27,100.5 C27,91.3873016 34.3873016,84 43.5,84 Z"/>
    <path fill="#000000" d="M25,115 L64.5959596,115 C65.1346801,126.928612 65.1346801,133.894282 64.5959596,135.89701 C63.7878788,138.901103 62.1717172,147.952978 55.7070707,151.167903 C49.2424242,154.382827 42.2796458,155.142518 35.5050505,151.971634 C28.7304552,148.800749 26.6161616,140.719397 25.8080808,135.89701 C25.2693603,132.682086 25,125.716416 25,115 Z"/>
    <path fill="#4A4A4A" d="M195.851416,65.7127513 C194.698629,66.4482989 193.87285,68.6180687 193.374078,72.2220607 C192.875307,75.8260527 192.875307,79.6231499 193.374078,83.6133522 L194.612747,90.9363253 C198.811815,92.3545582 202.252562,92.3545582 204.934988,90.9363253 C208.958628,88.8089758 210.830729,84.4270159 211.541223,81.9860248 C212.251717,79.5450338 212.251717,76.2903791 210.715443,71.408397 C209.17917,66.5264149 207.06333,65.453678 203.495059,64.3433881 C201.116212,63.6031948 198.568331,64.0596492 195.851416,65.7127513 Z"/>
    <path stroke="#4A4A4A" d="M159,78 C161.289333,80.5015904 163.156,81.9738359 164.6,82.4167365 C166.766001,83.0810875 170.2,83.3000838 173.4,82.4167365 C175.533333,81.8278383 177.4,80.3555928 179,78"/>
    <polygon fill="#000000" points="45 131.526 92 156 92 148.658 46.621 125"/>
    <path fill="#8B572A" d="M119,71 L139.326963,59.5712344 L137.700806,66.1019576 L149.896983,58.754894 L149.896983,64.877447 L159.653925,57.9385536 L175.915496,66.1019576 L178.354731,57.9385536 L188.924752,64.877447 L188.924752,58.754894 L192.990144,62.0202556 L193,57.9385536 C192.356211,56.3647954 191.268822,54.4600011 189.73783,52.2241708 C188.206839,49.9883405 186.309656,47.5393193 184.046281,44.8771072 C181.425798,42.3427326 178.986563,40.4379384 176.728574,39.1627244 C174.470586,37.8875104 171.760324,36.7990566 168.597789,35.8973628 C165.987003,35.4611657 164.08982,35.1890523 162.906239,35.0810224 C161.722659,34.9729925 160.638555,34.9729925 159.653925,35.0810224 C157.894046,34.9942774 156.538915,34.9942774 155.588533,35.0810224 C154.638151,35.1677674 153.011994,35.4398808 150.710062,35.8973628 C149.054204,36.1528713 147.699073,36.4249848 146.644669,36.7137032 C145.590265,37.0024216 143.964108,37.5466485 141.766198,38.346384 C139.665363,39.3484659 138.039206,40.1648063 136.887727,40.7954052 C135.736249,41.4260041 134.381118,42.2423445 132.822335,43.2444264 C130.618233,44.913144 128.992075,46.2737113 127.943864,47.3261284 C126.895652,48.3785455 125.811547,49.7391128 124.69155,51.4078304 C123.486245,53.6168398 122.673167,55.2495206 122.252314,56.3058728 C121.831462,57.362225 121.560435,58.4506789 121.439236,59.5712344 L119.813079,67.7346384 L119,71 Z"/>
    <path fill="#4A4A4A" d="M92 44.7660948L100.866667 40 105.3 46.1278361C105.766667 46.7330545 106 47.1869683 106 47.4895775 106 47.7921867 105.766667 48.2461004 105.3 48.8513188 104.739509 49.5634729 104.246917 50.0173866 103.822222 50.2130602 103.185181 50.5065705 102.353018 50.5527897 101.8 50.2130602 101.246982 49.8733307 101.1 49.5321895 101.1 48.8513188 101.1 48.1704481 101.255556 48.1704481 101.8 47.4895775 102.162963 47.0356637 102.837037 46.5817499 103.822222 46.1278361L100.866667 42.7234827 94.9555556 46.1278361 97.1722222 49.5321895C97.6277986 50.0304996 98.0037246 50.4844134 98.3 50.8939309 98.7444131 51.508207 99 51.5748015 99 52.2556722 99 52.9365429 98.5984809 53.4756251 97.6 54.2982843 96.934346 54.8467237 96.2991609 55.0736806 95.6944444 54.9791549 95.0981481 54.9791549 94.5742782 54.7667914 94.1228346 54.3420643 94.1112212 54.3311382 94.1075944 54.3130579 94.1 54.2982843 93.4 52.9365429 94.3764616 52.1084245 94.9555556 51.5748015 95.3416182 51.2190529 95.8342108 50.992096 96.4333333 50.8939309L92 44.7660948zM110.153846 21L111.538462 22.9690729 108.307692 25.9226823C110.270011 27.9901194 111.346934 29.1387453 111.538462 29.3685599 111.729989 29.5983746 111.883835 29.9265534 112 30.3530964 112 31.009454 111.846154 31.5017223 111.538462 31.8299011 111.076923 32.3221693 110.810687 32.5342078 110.153846 32.8144376 109.497005 33.0946673 109.266806 33.0267193 108.769231 32.8144376 108.271656 32.6021558 107.995057 32.1475354 107.846154 31.8299011 107.697251 31.5122668 107.533518 31.5122668 107.846154 30.8453646 108.054577 30.4007632 108.36227 30.0725843 108.769231 29.8608282 109.234271 29.5861008 109.541964 29.4220114 109.692308 29.3685599 109.842652 29.3151085 109.996498 29.3151085 110.153846 29.3685599L106 24.9381459 110.153846 21z"/>
  </g>
</svg>
