<?xml version="1.0" encoding="UTF-8"?><svg width="512px" height="512px" viewBox="-76 0 440 440.41602" xmlns="http://www.w3.org/2000/svg"><path d="m282.27 3.6172c-2.8438-2.3242-6.3945-3.6016-10.066-3.6172-1.1406 0-2.2773 0.11719-3.3906 0.35156l-160 34.289c-7.3633 1.5977-12.613 8.1133-12.609 15.648v271.02c-9.6836-5.7578-20.73-8.832-32-8.8945-35.344 0-64 28.652-64 64 0 35.344 28.656 64 64 64 35.348 0 64-28.656 64-64v-250.66l147.34-31.57c7.3828-1.5781 12.656-8.0977 12.656-15.648v-62.543c-0.015625-4.8086-2.1953-9.3594-5.9336-12.383z" fill="currentColor"/></svg>
