<svg id="Layer_1" data-name="Layer 1" xmlns="http://www.w3.org/2000/svg" xmlns:xlink="http://www.w3.org/1999/xlink" viewBox="0 0 112.36 75.89"><defs><style>.cls-1{fill-rule:evenodd;fill:url(#linear-gradient);}.cls-2{fill:url(#linear-gradient-2);}.cls-3{fill:url(#linear-gradient-3);}.cls-4{fill:url(#linear-gradient-4);}.cls-5{fill:url(#linear-gradient-5);}.cls-6{fill:url(#linear-gradient-6);}.cls-7{fill:url(#linear-gradient-7);}.cls-8{fill:url(#linear-gradient-8);}.cls-9{fill:url(#linear-gradient-9);}.cls-10{fill:url(#linear-gradient-10);}.cls-11{fill:url(#linear-gradient-11);}</style><linearGradient id="linear-gradient" x1="42.34" y1="-9.87" x2="86.49" y2="95.07" gradientUnits="userSpaceOnUse"><stop offset="0" stop-color="#42ebdc"/><stop offset="1" stop-color="#6c43ff"/></linearGradient><linearGradient id="linear-gradient-2" x1="-14.37" y1="13.99" x2="29.79" y2="118.93" xlink:href="#linear-gradient"/><linearGradient id="linear-gradient-3" x1="-3.31" y1="9.33" x2="40.85" y2="114.27" xlink:href="#linear-gradient"/><linearGradient id="linear-gradient-4" x1="6.56" y1="5.18" x2="50.72" y2="110.12" xlink:href="#linear-gradient"/><linearGradient id="linear-gradient-5" x1="19.07" y1="-0.08" x2="63.23" y2="104.86" xlink:href="#linear-gradient"/><linearGradient id="linear-gradient-6" x1="29.01" y1="-4.26" x2="73.17" y2="100.67" xlink:href="#linear-gradient"/><linearGradient id="linear-gradient-7" x1="37.72" y1="-7.93" x2="81.87" y2="97.01" xlink:href="#linear-gradient"/><linearGradient id="linear-gradient-8" x1="45.69" y1="-11.28" x2="89.85" y2="93.66" xlink:href="#linear-gradient"/><linearGradient id="linear-gradient-9" x1="54.69" y1="-15.07" x2="98.84" y2="89.87" xlink:href="#linear-gradient"/><linearGradient id="linear-gradient-10" x1="60.88" y1="-17.68" x2="105.04" y2="87.26" xlink:href="#linear-gradient"/><linearGradient id="linear-gradient-11" x1="69.53" y1="-21.31" x2="113.69" y2="83.62" xlink:href="#linear-gradient"/></defs><title>rpt-logo-gradient-vertical</title><path class="cls-1" d="M42.51,24a2.19,2.19,0,1,0,2.19,2.19A2.2,2.2,0,0,0,42.51,24m0,8.76A2.19,2.19,0,1,0,44.7,34.9a2.2,2.2,0,0,0-2.19-2.19m0-17.52a2.19,2.19,0,1,0,2.19,2.19,2.2,2.2,0,0,0-2.19-2.19m-6.57,1.1a1.1,1.1,0,1,0,1.1,1.1,1.08,1.08,0,0,0-1.1-1.1m6.57-9.86A2.19,2.19,0,1,0,44.7,8.62a2.2,2.2,0,0,0-2.19-2.19m32.86,12a1.1,1.1,0,1,0-1.1-1.1,1.08,1.08,0,0,0,1.1,1.1M60,10.81a2.19,2.19,0,1,0-2.19-2.19A2.2,2.2,0,0,0,60,10.81m0-7.67A1.08,1.08,0,0,0,61.13,2a1.1,1.1,0,1,0-2.19,0A1.08,1.08,0,0,0,60,3.14M35.94,25a1.1,1.1,0,1,0,1.1,1.1,1.08,1.08,0,0,0-1.1-1.1M51.27,40.38a1.1,1.1,0,1,0,1.1,1.1,1.08,1.08,0,0,0-1.1-1.1m0-37.24A1.08,1.08,0,0,0,52.36,2a1.1,1.1,0,0,0-2.19,0,1.08,1.08,0,0,0,1.1,1.1m0,7.67a2.19,2.19,0,1,0-2.19-2.19,2.2,2.2,0,0,0,2.19,2.19m0,12a3.29,3.29,0,1,0,3.29,3.29,3.28,3.28,0,0,0-3.29-3.29M68.79,24A2.19,2.19,0,1,0,71,26.14,2.2,2.2,0,0,0,68.79,24m0,8.76A2.19,2.19,0,1,0,71,34.9a2.2,2.2,0,0,0-2.19-2.19m0-17.52A2.19,2.19,0,1,0,71,17.38a2.2,2.2,0,0,0-2.19-2.19m0-8.76A2.19,2.19,0,1,0,71,8.62a2.2,2.2,0,0,0-2.19-2.19M75.36,25a1.1,1.1,0,1,0,1.1,1.1,1.08,1.08,0,0,0-1.1-1.1M60,32.71a2.19,2.19,0,1,0,2.19,2.19A2.2,2.2,0,0,0,60,32.71m0,7.67a1.1,1.1,0,1,0,1.1,1.1,1.08,1.08,0,0,0-1.1-1.1M51.27,14.1a3.29,3.29,0,1,0,3.29,3.29,3.28,3.28,0,0,0-3.29-3.29m0,18.62a2.19,2.19,0,1,0,2.19,2.19,2.2,2.2,0,0,0-2.19-2.19M60,22.86a3.29,3.29,0,1,0,3.29,3.29A3.28,3.28,0,0,0,60,22.86m0-8.76a3.29,3.29,0,1,0,3.29,3.29A3.28,3.28,0,0,0,60,14.1"/><path class="cls-2" d="M8.69,62.83l4.65,7.41h-3L5.81,63H3.94v7.23H1.41V54.12H7.05c3,0,4.76,1.68,4.76,4.44A4.06,4.06,0,0,1,8.69,62.83ZM7.12,60.62a2.05,2.05,0,1,0,0-4.1H3.94v4.1Z"/><path class="cls-3" d="M25.22,65.1H17c0,1.82,1.06,3.2,2.88,3.2a3.35,3.35,0,0,0,3-2l2,.81c-1.17,2.28-2.53,3.27-5.09,3.27-3.82,0-5.41-3.22-5.41-6s1.59-6,5.41-6,5.34,3,5.34,5.62ZM17,63.1h5.64a2.73,2.73,0,0,0-2.81-2.53A2.82,2.82,0,0,0,17,63.1Z"/><path class="cls-4" d="M33.45,70.42a3.82,3.82,0,0,1-3.11-1.47v6H28V58.64h2.39V60a3.86,3.86,0,0,1,3.15-1.52c3.38,0,5.18,2.21,5.18,6S36.86,70.42,33.45,70.42Zm2.69-6a4.39,4.39,0,0,0-.83-2.81,2.69,2.69,0,0,0-4.28,0,4.39,4.39,0,0,0-.83,2.81A4.5,4.5,0,0,0,31,67.27a2.73,2.73,0,0,0,4.28,0A4.5,4.5,0,0,0,36.15,64.44Z"/><path class="cls-5" d="M51.55,65.1H43.33c0,1.82,1.06,3.2,2.88,3.2a3.35,3.35,0,0,0,3-2l2,.81c-1.17,2.28-2.53,3.27-5.09,3.27-3.82,0-5.41-3.22-5.41-6s1.59-6,5.41-6,5.34,3,5.34,5.62Zm-8.17-2H49a2.73,2.73,0,0,0-2.81-2.53A2.82,2.82,0,0,0,43.38,63.1Z"/><path class="cls-6" d="M56.68,70.24H54.29V58.64h2.39v1.93a4,4,0,0,1,3.43-2.12,3.9,3.9,0,0,1,1.47.28l-.41,2.19a2.53,2.53,0,0,0-1.36-.35A2.64,2.64,0,0,0,57.6,62a7,7,0,0,0-.92,4Z"/><path class="cls-7" d="M62.95,60.75V58.64h1.93v-3.2l2.39-1.5v4.7h3v2.12h-3v5.66c0,1.27.51,1.89,1.54,1.89a2.12,2.12,0,0,0,1.1-.32l.62,2a4.25,4.25,0,0,1-1.86.41c-2.3,0-3.8-1.4-3.8-4.14V60.75Z"/><path class="cls-8" d="M71.85,64.44a6.14,6.14,0,0,1,1.54-4.26,5.86,5.86,0,0,1,8.31,0,6.58,6.58,0,0,1,0,8.52,5.86,5.86,0,0,1-8.31,0A6.14,6.14,0,0,1,71.85,64.44Zm2.53,0a4.55,4.55,0,0,0,.83,2.74,2.78,2.78,0,0,0,2.35,1.13,2.71,2.71,0,0,0,2.33-1.13,4.42,4.42,0,0,0,.85-2.74,4.35,4.35,0,0,0-.85-2.72,2.73,2.73,0,0,0-2.33-1.15,2.8,2.8,0,0,0-2.35,1.15A4.48,4.48,0,0,0,74.38,64.44Z"/><path class="cls-9" d="M86,54.19a1.63,1.63,0,0,1,2.35,0,1.67,1.67,0,0,1,0,2.35,1.74,1.74,0,0,1-2.37,0A1.69,1.69,0,0,1,86,54.19Zm0,4.44h2.39v11.6H86Z"/><path class="cls-10" d="M94.2,70.24H91.81V58.64H94.2v1.93a4,4,0,0,1,3.43-2.12,3.9,3.9,0,0,1,1.47.28l-.41,2.19a2.54,2.54,0,0,0-1.36-.35A2.64,2.64,0,0,0,95.12,62a7,7,0,0,0-.92,4Z"/><path class="cls-11" d="M111,65.1h-8.22c0,1.82,1.06,3.2,2.88,3.2a3.35,3.35,0,0,0,3-2l2,.81c-1.17,2.28-2.53,3.27-5.09,3.27-3.82,0-5.41-3.22-5.41-6s1.59-6,5.41-6,5.34,3,5.34,5.62Zm-8.17-2h5.64a2.73,2.73,0,0,0-2.81-2.53A2.82,2.82,0,0,0,102.78,63.1Z"/></svg>