<svg id="Layer_1" data-name="Layer 1" xmlns="http://www.w3.org/2000/svg" viewBox="0 0 169.32 38.28"><defs><style>.cls-1,.cls-2{fill:#fff;}.cls-1{fill-rule:evenodd;}</style></defs><title>rpt-logo-white-horizontal</title><path class="cls-1" d="M9.51,21.09a2,2,0,1,0,2,2,2,2,0,0,0-2-2m0,7.8a2,2,0,1,0,2,2,2,2,0,0,0-2-2m0-15.61a2,2,0,1,0,2,2,2,2,0,0,0-2-2m-5.85,1a1,1,0,1,0,1,1,1,1,0,0,0-1-1M9.51,5.48a2,2,0,1,0,2,2,2,2,0,0,0-2-2M38.77,16.21a1,1,0,1,0-1-1,1,1,0,0,0,1,1M25.11,9.38a2,2,0,1,0-2-2,2,2,0,0,0,2,2m0-6.83a1,1,0,0,0,1-1,1,1,0,1,0-2,0,1,1,0,0,0,1,1M3.66,22.06a1,1,0,1,0,1,1,1,1,0,0,0-1-1M17.31,35.72a1,1,0,1,0,1,1,1,1,0,0,0-1-1m0-33.16a1,1,0,0,0,1-1,1,1,0,0,0-2,0,1,1,0,0,0,1,1m0,6.83a2,2,0,1,0-2-2,2,2,0,0,0,2,2m0,10.73A2.93,2.93,0,1,0,20.24,23a2.92,2.92,0,0,0-2.93-2.93m15.61,1a2,2,0,1,0,2,2,2,2,0,0,0-2-2m0,7.8a2,2,0,1,0,2,2,2,2,0,0,0-2-2m0-15.61a2,2,0,1,0,2,2,2,2,0,0,0-2-2m0-7.8a2,2,0,1,0,2,2,2,2,0,0,0-2-2m5.85,16.58a1,1,0,1,0,1,1,1,1,0,0,0-1-1M25.11,28.89a2,2,0,1,0,2,2,2,2,0,0,0-2-2m0,6.83a1,1,0,1,0,1,1,1,1,0,0,0-1-1m-7.8-23.41a2.93,2.93,0,1,0,2.93,2.93,2.92,2.92,0,0,0-2.93-2.93m0,16.58a2,2,0,1,0,2,2,2,2,0,0,0-2-2m7.8-8.78A2.93,2.93,0,1,0,28,23a2.92,2.92,0,0,0-2.93-2.93m0-7.8A2.93,2.93,0,1,0,28,15.24a2.92,2.92,0,0,0-2.93-2.93"/><path class="cls-2" d="M60.11,20,65,27.77H61.84l-4.72-7.53H55.17v7.53H52.53V11h5.87c3.14,0,5,1.75,5,4.63A4.23,4.23,0,0,1,60.11,20Zm-1.63-2.3a2,2,0,0,0,2.21-2.13,2,2,0,0,0-2.21-2.13H55.17v4.27Z"/><path class="cls-2" d="M77.33,22.42H68.77c0,1.89,1.1,3.33,3,3.33a3.49,3.49,0,0,0,3.17-2l2.13.84C75.84,26.93,74.43,28,71.77,28c-4,0-5.64-3.36-5.64-6.24s1.65-6.23,5.64-6.23,5.56,3.14,5.56,5.85Zm-8.51-2.09h5.87a2.84,2.84,0,0,0-2.93-2.64A2.94,2.94,0,0,0,68.82,20.33Z"/><path class="cls-2" d="M85.91,28a4,4,0,0,1-3.24-1.53v6.23H80.18v-17h2.49v1.39A4,4,0,0,1,86,15.49c3.52,0,5.4,2.3,5.4,6.23S89.46,28,85.91,28Zm2.81-6.24a4.57,4.57,0,0,0-.86-2.93,2.81,2.81,0,0,0-4.46,0,4.57,4.57,0,0,0-.86,2.93,4.69,4.69,0,0,0,.86,2.95,2.84,2.84,0,0,0,4.46,0A4.69,4.69,0,0,0,88.72,21.72Z"/><path class="cls-2" d="M104.76,22.42H96.2c0,1.89,1.1,3.33,3,3.33a3.49,3.49,0,0,0,3.17-2l2.13.84c-1.22,2.37-2.64,3.41-5.3,3.41-4,0-5.64-3.36-5.64-6.24s1.65-6.23,5.64-6.23,5.56,3.14,5.56,5.85Zm-8.51-2.09h5.87A2.84,2.84,0,0,0,99.2,17.7,2.94,2.94,0,0,0,96.25,20.33Z"/><path class="cls-2" d="M110.11,27.77h-2.49V15.68h2.49v2a4.21,4.21,0,0,1,3.57-2.21,4.06,4.06,0,0,1,1.53.29l-.43,2.28a2.64,2.64,0,0,0-1.41-.36,2.75,2.75,0,0,0-2.3,1.46,7.34,7.34,0,0,0-1,4.12Z"/><path class="cls-2" d="M116.63,17.89V15.68h2V12.35l2.49-1.56v4.89h3.14v2.21h-3.14v5.9c0,1.32.53,2,1.61,2a2.21,2.21,0,0,0,1.15-.34l.65,2.11a4.43,4.43,0,0,1-1.94.43c-2.4,0-4-1.46-4-4.32V17.89Z"/><path class="cls-2" d="M125.91,21.72a6.39,6.39,0,0,1,1.61-4.44,6.11,6.11,0,0,1,8.66,0,6.41,6.41,0,0,1,1.63,4.44,6.41,6.41,0,0,1-1.63,4.44,6.11,6.11,0,0,1-8.66,0A6.4,6.4,0,0,1,125.91,21.72Zm2.64,0a4.74,4.74,0,0,0,.86,2.85,2.9,2.9,0,0,0,2.45,1.17,2.82,2.82,0,0,0,2.42-1.17,4.6,4.6,0,0,0,.89-2.85,4.52,4.52,0,0,0-.89-2.83,2.84,2.84,0,0,0-2.42-1.2,2.92,2.92,0,0,0-2.45,1.2A4.66,4.66,0,0,0,128.54,21.72Z"/><path class="cls-2" d="M140.62,11.05a1.69,1.69,0,0,1,2.45,0,1.74,1.74,0,0,1,0,2.45,1.81,1.81,0,0,1-2.47,0A1.76,1.76,0,0,1,140.62,11.05Zm0,4.63h2.49V27.77H140.6Z"/><path class="cls-2" d="M149.19,27.77h-2.49V15.68h2.49v2a4.21,4.21,0,0,1,3.57-2.21,4.06,4.06,0,0,1,1.53.29l-.43,2.28a2.64,2.64,0,0,0-1.41-.36,2.75,2.75,0,0,0-2.3,1.46,7.34,7.34,0,0,0-1,4.12Z"/><path class="cls-2" d="M166.64,22.42h-8.56c0,1.89,1.1,3.33,3,3.33a3.49,3.49,0,0,0,3.17-2l2.13.84c-1.22,2.37-2.64,3.41-5.3,3.41-4,0-5.64-3.36-5.64-6.24s1.65-6.23,5.64-6.23,5.56,3.14,5.56,5.85Zm-8.51-2.09H164a2.84,2.84,0,0,0-2.93-2.64A2.94,2.94,0,0,0,158.12,20.33Z"/></svg>